# xmcd
#
# Track frame offsets: 
#        150
#        20672
#        40872
#        56335
#        72238
#        89122
#        104143
#        135324
#        155363
#        182011
#        210530
#        229733
#        243531
#        262756
#        279752
#
# Disc length: 4021 seconds
#
# Revision: 0
# Processed by: cddbd v1.5.2PL0 Copyright (c) Steve Scherf et al.
# Submitted via: ExactAudioCopy v0.99pb4
#
DISCID=cc0fb30f
DTITLE=Various Artist - Soul CD4 - Nu Soul
DYEAR=2008
DGENRE=Electronic
TTITLE0=The Lions feat Noelle Scaggs - Think (About It)
TTITLE1=Hardkandy feat Laura Vane - Hey Lover
TTITLE2=Katalyst feat Stehanie McKay - Say What You Feel
TTITLE3=TM Juke feat Kinny - Damn
TTITLE4=PPP feat Tiombe Lockhart - Stay With Me
TTITLE5=Goapele - Butterflykisses
TTITLE6=Alison Crockett - UR [Yam Who? Remix]
TTITLE7=Clutch Player feat Sabrina Cuie - The World Is All Mine
TTITLE8=D'Nell feat Ellie Hajee - This Thing
TTITLE9=Jill Scott - One Is The Magic # [Redux] [Live]
TTITLE10=Beady Belle feat India Arie - Self-fulfilling
TTITLE11=Aaron Jerome feat Bajka - Way Of Life
TTITLE12=Natural Self feat Andreya Triana - The Rising
TTITLE13=Rosie Brown - Bliiss [Quantic Mix]
TTITLE14=Lanu feat Cherie Mathieson - Runaway
EXTD=
EXTT0=
EXTT1=
EXTT2=
EXTT3=
EXTT4=
EXTT5=
EXTT6=
EXTT7=
EXTT8=
EXTT9=
EXTT10=
EXTT11=
EXTT12=
EXTT13=
EXTT14=
PLAYORDER=
